# xmcd CD database file
#
# Track frame offsets:
#	150
#	19100
#	37239
#	53480
#	71967
#	85867
#	105100
#	124587
#	139257
#	152957
#	167117
#	185890
#
# Disc length: 2667 seconds
#
# Revision: 0
# Processed by: cddbd v1.5.2PL0 Copyright (c) Steve Scherf et al.
# Submitted via: CDex 1.70beta1
#
DISCID=a50a690c
DTITLE=小泉ニロ - Bossa@NILO
DYEAR=2007
DGENRE=Jazz
TTITLE0=Wave
TTITLE1=Agua de beber
TTITLE2=One note Samba
TTITLE3=Mas que nada
TTITLE4=So Nice [Summer Samba]
TTITLE5=Moonlight Serenade
TTITLE6=Chega de Saudade
TTITLE7=Aguas de marco
TTITLE8=The Shadow of Your Smile
TTITLE9=Dreamer
TTITLE10=Love me or Leave me
TTITLE11=Manha de Carnaval
EXTD=YEAR: 2007
EXTT0=
EXTT1=
EXTT2=
EXTT3=
EXTT4=
EXTT5=
EXTT6=
EXTT7=
EXTT8=
EXTT9=
EXTT10=
EXTT11=
PLAYORDER=
